<mxfile host="app.diagrams.net" agent="Mozilla/5.0 (Windows NT 10.0; Win64; x64) AppleWebKit/537.36 (KHTML, like Gecko) Chrome/133.0.0.0 Safari/537.36 Edg/133.0.0.0" version="26.0.16">
  <diagram name="第 1 页" id="XHctNN8vPMMtAe_A4z8Z">
    <mxGraphModel dx="1426" dy="789" grid="1" gridSize="10" guides="1" tooltips="1" connect="1" arrows="1" fold="1" page="1" pageScale="1" pageWidth="3300" pageHeight="4681" math="0" shadow="0">
      <root>
        <mxCell id="0" />
        <mxCell id="1" parent="0" />
        <mxCell id="_OXdtsUzHgIdnHBHdnV9-1" value="" style="endArrow=none;dashed=1;html=1;strokeWidth=6;rounded=0;" edge="1" parent="1">
          <mxGeometry width="50" height="50" relative="1" as="geometry">
            <mxPoint x="130" y="110" as="sourcePoint" />
            <mxPoint x="130" y="1850" as="targetPoint" />
          </mxGeometry>
        </mxCell>
        <mxCell id="_OXdtsUzHgIdnHBHdnV9-2" value="" style="endArrow=none;dashed=1;html=1;strokeWidth=6;rounded=0;" edge="1" parent="1">
          <mxGeometry width="50" height="50" relative="1" as="geometry">
            <mxPoint x="201" y="1241" as="sourcePoint" />
            <mxPoint x="4836" y="1241" as="targetPoint" />
          </mxGeometry>
        </mxCell>
        <mxCell id="_OXdtsUzHgIdnHBHdnV9-3" value="" style="endArrow=none;dashed=1;html=1;strokeWidth=6;rounded=0;fontColor=#000000;labelBackgroundColor=#FFFFFF;strokeColor=#FF3333;" edge="1" parent="1">
          <mxGeometry width="50" height="50" relative="1" as="geometry">
            <mxPoint x="1019" y="445" as="sourcePoint" />
            <mxPoint x="1019" y="2195" as="targetPoint" />
          </mxGeometry>
        </mxCell>
        <mxCell id="_OXdtsUzHgIdnHBHdnV9-4" value="" style="endArrow=none;dashed=1;html=1;strokeWidth=6;rounded=0;" edge="1" parent="1">
          <mxGeometry width="50" height="50" relative="1" as="geometry">
            <mxPoint x="200" y="680" as="sourcePoint" />
            <mxPoint x="4835" y="680" as="targetPoint" />
          </mxGeometry>
        </mxCell>
        <mxCell id="_OXdtsUzHgIdnHBHdnV9-5" value="" style="endArrow=none;dashed=1;html=1;strokeWidth=6;rounded=0;" edge="1" parent="1">
          <mxGeometry width="50" height="50" relative="1" as="geometry">
            <mxPoint x="200" y="960" as="sourcePoint" />
            <mxPoint x="4835" y="960" as="targetPoint" />
          </mxGeometry>
        </mxCell>
        <mxCell id="_OXdtsUzHgIdnHBHdnV9-6" value="&lt;span style=&quot;font-size: 22px;&quot;&gt;apache&lt;/span&gt;" style="rounded=1;whiteSpace=wrap;html=1;fontStyle=1;strokeWidth=3;shadow=1;overflow=visible;" vertex="1" parent="1">
          <mxGeometry x="520" y="780" width="200" height="77" as="geometry" />
        </mxCell>
        <mxCell id="_OXdtsUzHgIdnHBHdnV9-7" value="&lt;span style=&quot;font-size: 22px;&quot;&gt;nginx&lt;/span&gt;" style="rounded=1;whiteSpace=wrap;html=1;fontStyle=1;strokeWidth=3;shadow=1;overflow=visible;" vertex="1" parent="1">
          <mxGeometry x="520" y="1061" width="200" height="77" as="geometry" />
        </mxCell>
        <mxCell id="_OXdtsUzHgIdnHBHdnV9-8" value="&lt;span style=&quot;font-size: 22px;&quot;&gt;tws&lt;/span&gt;" style="rounded=1;whiteSpace=wrap;html=1;fontStyle=1;strokeWidth=3;shadow=1;overflow=visible;" vertex="1" parent="1">
          <mxGeometry x="520" y="1340" width="200" height="77" as="geometry" />
        </mxCell>
        <mxCell id="_OXdtsUzHgIdnHBHdnV9-9" value="&lt;span style=&quot;font-size: 22px;&quot;&gt;tomcat&lt;/span&gt;" style="rounded=1;whiteSpace=wrap;html=1;fontStyle=1;strokeWidth=3;shadow=1;overflow=visible;" vertex="1" parent="1">
          <mxGeometry x="520" y="1620" width="200" height="77" as="geometry" />
        </mxCell>
        <mxCell id="_OXdtsUzHgIdnHBHdnV9-10" value="&lt;span style=&quot;font-size: 22px;&quot;&gt;jetty&lt;/span&gt;" style="rounded=1;whiteSpace=wrap;html=1;fontStyle=1;strokeWidth=3;shadow=1;overflow=visible;" vertex="1" parent="1">
          <mxGeometry x="520" y="1902" width="200" height="77" as="geometry" />
        </mxCell>
        <mxCell id="_OXdtsUzHgIdnHBHdnV9-11" value="" style="endArrow=none;dashed=1;html=1;strokeWidth=6;rounded=0;" edge="1" parent="1">
          <mxGeometry width="50" height="50" relative="1" as="geometry">
            <mxPoint x="200" y="1521" as="sourcePoint" />
            <mxPoint x="4835" y="1521" as="targetPoint" />
          </mxGeometry>
        </mxCell>
        <mxCell id="_OXdtsUzHgIdnHBHdnV9-12" value="" style="endArrow=none;dashed=1;html=1;strokeWidth=6;rounded=0;" edge="1" parent="1">
          <mxGeometry width="50" height="50" relative="1" as="geometry">
            <mxPoint x="200" y="1800" as="sourcePoint" />
            <mxPoint x="4835" y="1800" as="targetPoint" />
          </mxGeometry>
        </mxCell>
        <mxCell id="_OXdtsUzHgIdnHBHdnV9-13" value="&lt;span style=&quot;font-size: 22px;&quot;&gt;php-fpm&lt;/span&gt;" style="rounded=1;whiteSpace=wrap;html=1;fontStyle=1;strokeWidth=3;shadow=1;overflow=visible;align=left;" vertex="1" parent="1">
          <mxGeometry x="1096" y="800" width="454" height="150" as="geometry" />
        </mxCell>
        <mxCell id="_OXdtsUzHgIdnHBHdnV9-14" value="&lt;span style=&quot;font-size: 22px;&quot;&gt;apache&lt;/span&gt;" style="rounded=1;whiteSpace=wrap;html=1;fontStyle=1;strokeWidth=3;shadow=1;overflow=visible;" vertex="1" parent="1">
          <mxGeometry x="1040" y="1061" width="200" height="77" as="geometry" />
        </mxCell>
        <mxCell id="_OXdtsUzHgIdnHBHdnV9-15" value="&lt;span style=&quot;font-size: 22px;&quot;&gt;.so&lt;/span&gt;" style="rounded=1;whiteSpace=wrap;html=1;fontStyle=1;strokeWidth=3;shadow=1;overflow=visible;" vertex="1" parent="1">
          <mxGeometry x="1040" y="1341" width="200" height="77" as="geometry" />
        </mxCell>
        <mxCell id="_OXdtsUzHgIdnHBHdnV9-16" value="&lt;span style=&quot;font-size: 22px;&quot;&gt;.war&lt;/span&gt;" style="rounded=1;whiteSpace=wrap;html=1;fontStyle=1;strokeWidth=3;shadow=1;overflow=visible;" vertex="1" parent="1">
          <mxGeometry x="1039" y="1621" width="200" height="77" as="geometry" />
        </mxCell>
        <mxCell id="_OXdtsUzHgIdnHBHdnV9-17" value="&lt;span style=&quot;font-size: 22px;&quot;&gt;.war&lt;/span&gt;" style="rounded=1;whiteSpace=wrap;html=1;fontStyle=1;strokeWidth=3;shadow=1;overflow=visible;" vertex="1" parent="1">
          <mxGeometry x="1039" y="1902" width="200" height="77" as="geometry" />
        </mxCell>
        <mxCell id="_OXdtsUzHgIdnHBHdnV9-18" value="&lt;span style=&quot;font-size: 22px;&quot;&gt;libphp.so&lt;/span&gt;" style="rounded=1;whiteSpace=wrap;html=1;fontStyle=1;strokeWidth=3;shadow=1;overflow=visible;" vertex="1" parent="1">
          <mxGeometry x="740" y="697" width="110" height="50" as="geometry" />
        </mxCell>
        <mxCell id="_OXdtsUzHgIdnHBHdnV9-19" value="*.php" style="strokeWidth=2;html=1;shape=mxgraph.flowchart.multi-document;whiteSpace=wrap;" vertex="1" parent="1">
          <mxGeometry x="1090" y="700" width="88" height="60" as="geometry" />
        </mxCell>
        <mxCell id="_OXdtsUzHgIdnHBHdnV9-20" value="" style="endArrow=classic;html=1;rounded=0;exitX=1;exitY=0.5;exitDx=0;exitDy=0;entryX=0;entryY=0.5;entryDx=0;entryDy=0;entryPerimeter=0;" edge="1" parent="1" source="_OXdtsUzHgIdnHBHdnV9-18" target="_OXdtsUzHgIdnHBHdnV9-19">
          <mxGeometry width="50" height="50" relative="1" as="geometry">
            <mxPoint x="870" y="736.5" as="sourcePoint" />
            <mxPoint x="935" y="733.5" as="targetPoint" />
          </mxGeometry>
        </mxCell>
        <mxCell id="_OXdtsUzHgIdnHBHdnV9-21" value="执行" style="edgeLabel;html=1;align=center;verticalAlign=middle;resizable=0;points=[];" vertex="1" connectable="0" parent="_OXdtsUzHgIdnHBHdnV9-20">
          <mxGeometry x="0.3592" relative="1" as="geometry">
            <mxPoint x="-21" as="offset" />
          </mxGeometry>
        </mxCell>
        <mxCell id="_OXdtsUzHgIdnHBHdnV9-22" value="&lt;span style=&quot;font-size: 22px;&quot;&gt;cgi&lt;/span&gt;" style="rounded=1;whiteSpace=wrap;html=1;fontStyle=1;strokeWidth=3;shadow=1;overflow=visible;" vertex="1" parent="1">
          <mxGeometry x="740" y="763" width="110" height="50" as="geometry" />
        </mxCell>
        <mxCell id="_OXdtsUzHgIdnHBHdnV9-23" value="&lt;span style=&quot;font-size: 22px;&quot;&gt;fastcgi&lt;/span&gt;" style="rounded=1;whiteSpace=wrap;html=1;fontStyle=1;strokeWidth=3;shadow=1;overflow=visible;" vertex="1" parent="1">
          <mxGeometry x="740" y="829" width="110" height="50" as="geometry" />
        </mxCell>
        <mxCell id="_OXdtsUzHgIdnHBHdnV9-24" value="" style="endArrow=classic;html=1;rounded=0;exitX=1;exitY=0.5;exitDx=0;exitDy=0;entryX=0;entryY=0.91;entryDx=0;entryDy=0;entryPerimeter=0;" edge="1" parent="1" source="_OXdtsUzHgIdnHBHdnV9-22" target="_OXdtsUzHgIdnHBHdnV9-19">
          <mxGeometry width="50" height="50" relative="1" as="geometry">
            <mxPoint x="860" y="745" as="sourcePoint" />
            <mxPoint x="1100" y="740" as="targetPoint" />
          </mxGeometry>
        </mxCell>
        <mxCell id="_OXdtsUzHgIdnHBHdnV9-25" value="执行" style="edgeLabel;html=1;align=center;verticalAlign=middle;resizable=0;points=[];" vertex="1" connectable="0" parent="_OXdtsUzHgIdnHBHdnV9-24">
          <mxGeometry x="0.3592" relative="1" as="geometry">
            <mxPoint x="-21" as="offset" />
          </mxGeometry>
        </mxCell>
        <mxCell id="_OXdtsUzHgIdnHBHdnV9-26" value="&lt;span style=&quot;font-size: 22px;&quot;&gt;fastcgi&lt;/span&gt;" style="rounded=1;whiteSpace=wrap;html=1;fontStyle=1;strokeWidth=3;shadow=1;overflow=visible;" vertex="1" parent="1">
          <mxGeometry x="740" y="895" width="110" height="50" as="geometry" />
        </mxCell>
        <mxCell id="_OXdtsUzHgIdnHBHdnV9-27" value="多进程管理" style="shape=curlyBracket;whiteSpace=wrap;html=1;rounded=1;labelPosition=left;verticalLabelPosition=middle;align=right;verticalAlign=middle;fontStyle=1;fontSize=22;" vertex="1" parent="1">
          <mxGeometry x="1320" y="833.13" width="20" height="90.75" as="geometry" />
        </mxCell>
        <mxCell id="_OXdtsUzHgIdnHBHdnV9-28" value="&lt;span style=&quot;font-size: 22px;&quot;&gt;子进程1&lt;/span&gt;" style="rounded=1;whiteSpace=wrap;html=1;fontStyle=1;strokeWidth=3;shadow=1;overflow=visible;" vertex="1" parent="1">
          <mxGeometry x="1350" y="820" width="130" height="40" as="geometry" />
        </mxCell>
        <mxCell id="_OXdtsUzHgIdnHBHdnV9-29" value="" style="endArrow=classic;html=1;rounded=0;exitX=1;exitY=0.5;exitDx=0;exitDy=0;entryX=0;entryY=0.5;entryDx=0;entryDy=0;" edge="1" parent="1" source="_OXdtsUzHgIdnHBHdnV9-26" target="_OXdtsUzHgIdnHBHdnV9-13">
          <mxGeometry width="50" height="50" relative="1" as="geometry">
            <mxPoint x="860" y="798" as="sourcePoint" />
            <mxPoint x="1100" y="765" as="targetPoint" />
          </mxGeometry>
        </mxCell>
        <mxCell id="_OXdtsUzHgIdnHBHdnV9-30" value="转发请求到右边的标准输入" style="edgeLabel;html=1;align=center;verticalAlign=middle;resizable=0;points=[];" vertex="1" connectable="0" parent="_OXdtsUzHgIdnHBHdnV9-29">
          <mxGeometry x="0.3592" relative="1" as="geometry">
            <mxPoint x="-21" as="offset" />
          </mxGeometry>
        </mxCell>
        <mxCell id="_OXdtsUzHgIdnHBHdnV9-31" value="&lt;span style=&quot;font-size: 22px;&quot;&gt;php-cgi？&lt;/span&gt;" style="rounded=1;whiteSpace=wrap;html=1;fontStyle=1;strokeWidth=3;shadow=1;overflow=visible;" vertex="1" parent="1">
          <mxGeometry x="860" y="829" width="120" height="50" as="geometry" />
        </mxCell>
        <mxCell id="_OXdtsUzHgIdnHBHdnV9-32" value="" style="endArrow=classic;html=1;rounded=0;exitX=0;exitY=0;exitDx=0;exitDy=0;entryX=1;entryY=0.5;entryDx=0;entryDy=0;entryPerimeter=0;" edge="1" parent="1" source="_OXdtsUzHgIdnHBHdnV9-28" target="_OXdtsUzHgIdnHBHdnV9-19">
          <mxGeometry width="50" height="50" relative="1" as="geometry">
            <mxPoint x="860" y="798" as="sourcePoint" />
            <mxPoint x="1100" y="765" as="targetPoint" />
          </mxGeometry>
        </mxCell>
        <mxCell id="_OXdtsUzHgIdnHBHdnV9-33" value="执行" style="edgeLabel;html=1;align=center;verticalAlign=middle;resizable=0;points=[];" vertex="1" connectable="0" parent="_OXdtsUzHgIdnHBHdnV9-32">
          <mxGeometry x="0.3592" relative="1" as="geometry">
            <mxPoint x="-21" as="offset" />
          </mxGeometry>
        </mxCell>
        <mxCell id="_OXdtsUzHgIdnHBHdnV9-34" value="" style="endArrow=none;dashed=1;html=1;rounded=0;strokeWidth=6;" edge="1" parent="1">
          <mxGeometry width="50" height="50" relative="1" as="geometry">
            <mxPoint x="1370" y="879" as="sourcePoint" />
            <mxPoint x="1460" y="879" as="targetPoint" />
          </mxGeometry>
        </mxCell>
        <mxCell id="_OXdtsUzHgIdnHBHdnV9-35" value="&lt;span style=&quot;font-size: 22px;&quot;&gt;子进程n&lt;/span&gt;" style="rounded=1;whiteSpace=wrap;html=1;fontStyle=1;strokeWidth=3;shadow=1;overflow=visible;" vertex="1" parent="1">
          <mxGeometry x="1350" y="895" width="130" height="40" as="geometry" />
        </mxCell>
      </root>
    </mxGraphModel>
  </diagram>
</mxfile>
